PathFileType	4	(X/Y/Z)	/Users/itak/Documents/Research/Walk-IL/dataset/trc/00073_00006.trc
DataRate	CameraRate	NumFrames	NumMarkers	Units	OrigDataRate	OrigDataStartFrame	OrigNumFrames
100.000000	100.000000	4	53	mm	100.000000	551	735
Frame#	Time	RPSI			LPSI			L3			STRN			T10			C7			CLAV			RBAK			LBAK			LSHO			LUPA			LAEL			LAOL			LWTS			LWPS			LFRA			LIFD			LHPS			LHTS			RSHO			RUPA			RAEL			RWTS			RWPS			RFRA			RIFD			RHTS			RHPS			RBHD			LFHD			RFHD			LBHD			LHIP			RHIP			RASI			LASI			LKNE			LTHI			LANK			LTIP			LTOE			LMT1			LMT5			LHEE			RKNE			RTHI			RANK			RTIP			RTOE			RMT1			RMT5			RHEE			RAOL			
		X1	Y1	Z1	X2	Y2	Z2	X3	Y3	Z3	X4	Y4	Z4	X5	Y5	Z5	X6	Y6	Z6	X7	Y7	Z7	X8	Y8	Z8	X9	Y9	Z9	X10	Y10	Z10	X11	Y11	Z11	X12	Y12	Z12	X13	Y13	Z13	X14	Y14	Z14	X15	Y15	Z15	X16	Y16	Z16	X17	Y17	Z17	X18	Y18	Z18	X19	Y19	Z19	X20	Y20	Z20	X21	Y21	Z21	X22	Y22	Z22	X23	Y23	Z23	X24	Y24	Z24	X25	Y25	Z25	X26	Y26	Z26	X27	Y27	Z27	X28	Y28	Z28	X29	Y29	Z29	X30	Y30	Z30	X31	Y31	Z31	X32	Y32	Z32	X33	Y33	Z33	X34	Y34	Z34	X35	Y35	Z35	X36	Y36	Z36	X37	Y37	Z37	X38	Y38	Z38	X39	Y39	Z39	X40	Y40	Z40	X41	Y41	Z41	X42	Y42	Z42	X43	Y43	Z43	X44	Y44	Z44	X45	Y45	Z45	X46	Y46	Z46	X47	Y47	Z47	X48	Y48	Z48	X49	Y49	Z49	X50	Y50	Z50	X51	Y51	Z51	X52	Y52	Z52	X53	Y53	Z53	

552	5.51	738.114501953125	1003.492431640625	262.3958740234375	912.0297241210938	994.0756225585938	259.5358581542969	831.4998779296875	1062.940185546875	265.2856750488281	803.3645629882812	1258.759399414062	515.1222534179688	842.2999267578125	1194.017700195312	248.651611328125	832.0231323242188	1461.637451171875	307.5594787597656	805.2590942382812	1372.663818359375	483.8442993164062	771.1883544921875	1320.279052734375	234.4803314208984	934.2528076171875	1428.046875	297.4679565429688	991.6898803710938	1433.98583984375	407.80615234375	1073.86083984375	1311.492065429688	396.4877319335938	1108.081298828125	1101.011596679688	420.0079345703125	1025.0107421875	1077.492431640625	357.1943054199219	1054.926025390625	871.4619140625	536.0069580078125	1114.080688476562	855.1100463867188	478.2408752441406	1120.283081054688	994.4163208007812	449.8287048339844	1038.566528320312	691.1260986328125	568.1325073242188	1112.690185546875	779.1709594726562	521.8607788085938	1061.837158203125	793.663818359375	569.569580078125	651.5216064453125	1420.22216796875	341.2875061035156	594.166748046875	1353.530029296875	314.81884765625	562.337890625	1100.112548828125	254.3315582275391	556.5962524414062	851.2776489257812	408.8362121582031	527.3911743164062	832.7276611328125	327.9629821777344	547.3379516601562	1016.745300292969	263.8447875976562	587.7286987304688	666.4451293945312	418.1687316894531	552.7186889648438	747.9044799804688	433.8551025390625	517.8494873046875	742.6692504882812	363.2903137207031	878.2335205078125	1658.527465820312	427.1009521484375	666.037109375	1641.495849609375	467.3958435058594	755.2710571289062	1660.7119140625	556.021484375	778.7731323242188	1629.794189453125	336.2398071289062	1001.203491210938	937.9291381835938	367.7781982421875	659.6763305664062	930.6930541992188	329.5867919921875	676.2164306640625	951.2794189453125	453.1646728515625	943.1257934570312	948.8881225585938	476.6403198242188	995.761962890625	471.4733581542969	504.7222290039062	1017.39306640625	619.79296875	457.6810302734375	1005.706970214844	214.9562377929688	76.25490570068359	1015.124755859375	333.3463745117188	281.1593322753906	1002.727111816406	65.50401306152344	211.1988677978516	948.8021850585938	103.1892776489258	185.59033203125	1042.394165039062	126.1322326660156	127.5600891113281	929.286376953125	259.7784423828125	54.74993133544922	753.0364990234375	498.5270080566406	487.5206909179688	673.2476196289062	758.2803344726562	438.8190307617188	855.552734375	30.27021217346191	429.511962890625	772.6337890625	370.8238525390625	480.2716369628906	860.7003784179688	34.08523559570312	649.5665893554688	908.3612060546875	38.54618453979492	596.0149536132812	822.4546508789062	39.31470489501953	548.7796630859375	918.9351806640625	33.18162536621094	394.5176696777344	645.1729736328125	1068.264404296875	299.3094482421875	
553	5.52	738.9122924804688	1004.378784179688	268.7299499511719	912.911865234375	994.614501953125	268.5858764648438	832.24951171875	1063.854858398438	272.7670593261719	801.22265625	1259.662109375	522.4883422851562	842.8316040039062	1194.9189453125	256.3380432128906	832.2890625	1462.56884765625	315.30029296875	803.6234741210938	1373.60546875	491.3052062988281	771.921142578125	1321.260009765625	241.5881805419922	934.459228515625	1428.783935546875	306.2014770507812	990.9138793945312	1434.667602539062	417.024169921875	1072.979248046875	1311.972290039062	406.3635864257812	1106.369750976562	1101.434326171875	429.9845275878906	1023.648864746094	1078.073974609375	366.6990966796875	1052.317749023438	871.7457885742188	545.248779296875	1111.809814453125	855.4843139648438	487.8123779296875	1118.294799804688	994.7987060546875	459.7288208007812	1036.487060546875	691.48291015625	577.4744262695312	1110.329833984375	779.59130859375	531.44482421875	1059.042236328125	793.9962768554688	578.8175048828125	651.3182373046875	1421.269165039062	347.2929077148438	594.1815795898438	1354.573974609375	320.2930297851562	562.7685546875	1100.932739257812	260.1387634277344	556.2577514648438	852.654296875	415.4330749511719	527.0731811523438	833.9732666015625	334.6139221191406	547.676025390625	1017.552001953125	269.8085632324219	586.6749267578125	667.7520141601562	425.3217163085938	552.03564453125	749.4169921875	440.7718505859375	517.168701171875	744.084228515625	370.2632751464844	877.1278686523438	1659.287963867188	435.959716796875	664.2425537109375	1642.159423828125	473.4804382324219	752.4656372070312	1661.322998046875	563.2796630859375	778.793212890625	1630.641845703125	343.9117736816406	1000.179870605469	938.8358764648438	378.6978759765625	659.29833984375	931.4614868164062	334.0177307128906	673.5161743164062	951.9852294921875	458.1827087402344	939.9806518554688	949.8948364257812	486.3139038085938	992.3853759765625	475.0588989257812	526.4127197265625	1015.292663574219	622.4907836914062	476.4417114257812	1012.693603515625	217.9156799316406	98.98250579833984	1017.107116699219	336.3186340332031	303.4854431152344	1009.558288574219	69.76917266845703	235.2493743896484	955.6636352539062	106.1652374267578	208.0956573486328	1050.085693359375	130.7191772460938	152.2219696044922	936.0203857421875	261.1236572265625	75.22474670410156	751.308837890625	498.1227722167969	488.8404846191406	671.7606201171875	758.1959228515625	441.8414001464844	855.5771484375	30.23094940185547	429.5211181640625	771.4741821289062	370.7019958496094	480.9536437988281	860.5091552734375	34.0257453918457	649.7088623046875	908.1920166015625	38.72863388061523	596.15576171875	822.3170166015625	38.98726654052734	548.945556640625	918.9264526367188	33.44850921630859	394.5024108886719	645.3958740234375	1069.25830078125	305.6669616699219	
554	5.53	739.7728271484375	1005.236511230469	275.0631408691406	913.7623901367188	995.2192993164062	277.5899658203125	833.02197265625	1064.78955078125	280.08984375	799.011474609375	1260.604614257812	529.763671875	843.3141479492188	1195.799926757812	264.0058898925781	832.5228271484375	1463.52392578125	322.9531555175781	801.899169921875	1374.587036132812	498.6753845214844	772.653564453125	1322.223388671875	248.6291809082031	934.5897827148438	1429.542236328125	314.8946838378906	990.0404663085938	1435.427368164062	426.21044921875	1072.044067382812	1312.579345703125	416.2177734375	1104.664794921875	1101.969848632812	439.842529296875	1022.279846191406	1078.7802734375	376.0919494628906	1049.820190429688	872.1192626953125	554.4066162109375	1109.536987304688	855.9481811523438	497.2054443359375	1116.338012695312	995.2884521484375	469.485107421875	1034.358764648438	691.8775634765625	586.5809326171875	1107.976440429688	780.0579223632812	540.7777709960938	1056.36376953125	794.3705444335938	587.920654296875	651.1110229492188	1422.33056640625	353.1536560058594	594.191162109375	1355.638061523438	325.6011352539062	563.2446899414062	1101.784423828125	265.7715148925781	555.7720336914062	854.113037109375	421.9225463867188	526.65673828125	835.275634765625	341.1712646484375	548.0598754882812	1018.39501953125	275.5794067382812	585.3468017578125	669.1112670898438	432.4642944335938	551.1105346679688	751.0205078125	447.6173706054688	516.2952270507812	745.5853271484375	377.1698303222656	876.0272827148438	1660.030029296875	444.6796569824219	662.5702514648438	1642.9208984375	479.5215759277344	749.7081909179688	1661.971435546875	570.4095458984375	778.7816772460938	1631.522216796875	351.5203247070312	999.076904296875	939.7991943359375	389.5429077148438	658.9622192382812	932.2073364257812	338.190673828125	670.8468627929688	952.6611328125	463.0345458984375	936.7625732421875	950.9432983398438	495.8665466308594	988.1153564453125	478.8994750976562	547.7135009765625	1012.517639160156	625.3485717773438	494.9443054199219	1019.568237304688	219.6448364257812	122.5691986083984	1018.599426269531	338.7841186523438	326.1401977539062	1016.00048828125	73.31713104248047	260.6988830566406	962.2316284179688	108.267333984375	231.7878570556641	1057.455322265625	134.2871856689453	178.1343536376953	942.7601318359375	261.1002502441406	96.32703399658203	749.6209106445312	497.7182922363281	489.8815612792969	670.3933715820312	758.2353515625	444.7640686035156	855.6488037109375	30.19235801696777	429.5427856445312	770.3152465820312	370.6157531738281	481.4295654296875	860.3468017578125	33.96123504638672	649.8544311523438	907.9981079101562	38.93937301635742	596.2841186523438	822.1051635742188	38.70647048950195	549.0701293945312	918.9287109375	33.71411895751953	394.4838562011719	645.6318969726562	1070.285034179688	311.9111022949219	
555	5.54	740.7116088867188	1006.060485839844	281.380615234375	914.614501953125	995.8296508789062	286.5567932128906	833.8148193359375	1065.704223632812	287.319091796875	796.7224731445312	1261.549438476562	536.9622802734375	843.7540893554688	1196.65185546875	271.6650085449219	832.7046508789062	1464.4833984375	330.5414123535156	800.0850219726562	1375.5703125	505.9777221679688	773.3698120117188	1323.158081054688	255.6180419921875	934.634521484375	1430.30126953125	323.5687561035156	989.058349609375	1436.226684570312	435.3873901367188	1071.045776367188	1313.277465820312	426.0639038085938	1102.998779296875	1102.586181640625	449.6065063476562	1020.962890625	1079.56494140625	385.3484497070312	1047.402709960938	872.5565185546875	563.4908447265625	1107.27099609375	856.4658813476562	506.4574279785156	1114.431884765625	995.8511352539062	479.1283569335938	1032.044555664062	692.2794189453125	595.4330444335938	1105.599365234375	780.5336303710938	549.8961791992188	1053.765014648438	794.762939453125	596.8947143554688	650.8844604492188	1423.381225585938	358.8946228027344	594.1824951171875	1356.696166992188	330.7681274414062	563.73828125	1102.64599609375	271.2173156738281	555.1090698242188	855.6385498046875	428.3031005859375	526.1741943359375	836.5863647460938	347.6137084960938	548.4662475585938	1019.248901367188	281.1482849121094	583.8207397460938	670.5263061523438	439.6507873535156	549.9577026367188	752.6975708007812	454.4086303710938	515.2935180664062	747.1234741210938	383.9921569824219	874.9238891601562	1660.735595703125	453.2557678222656	661.012939453125	1643.773803710938	485.5197448730469	747.0015258789062	1662.662109375	577.4118041992188	778.7353515625	1632.40673828125	359.0385131835938	997.9046630859375	940.7715454101562	400.3368225097656	658.6915893554688	932.8838500976562	342.2219848632812	668.2265625	953.2846069335938	467.7258605957031	933.4931640625	952.002685546875	505.3172302246094	982.9859008789062	482.9367065429688	568.520263671875	1009.089111328125	628.3129272460938	513.1051635742188	1026.249755859375	220.1256408691406	146.9701385498047	1019.558959960938	340.7024841308594	349.0536499023438	1021.858337402344	76.13795471191406	287.5127868652344	968.325439453125	109.5106811523438	256.632080078125	1064.354248046875	136.8174591064453	205.2387237548828	949.4583740234375	259.6905822753906	118.0268325805664	748.0050659179688	497.3212585449219	490.74072265625	669.1350708007812	758.3905029296875	447.664306640625	855.7603149414062	30.15853691101074	429.5803833007812	769.2013549804688	370.5567321777344	481.8004150390625	860.20849609375	33.88188934326172	650.001708984375	907.7886962890625	39.1686897277832	596.4007568359375	821.8054809570312	38.46327972412109	549.14208984375	918.9453125	33.96732330322266	394.471435546875	645.8524169921875	1071.319702148438	318.0255126953125	
